<!-- 
<svg width="177" height="42" viewBox="0 0 177 42" fill="none" xmlns="http://www.w3.org/2000/svg">
<path opacity="0.5" d="M40.0652 2.25671L30.2601 36.9917C30.2102 37.1494 30.0108 37.1967 29.8945 37.0863L23.3301 30.8583L28.2492 13.4514C28.2991 13.2937 28.1495 13.1518 27.9833 13.1991L9.63617 17.8662L3.10498 11.6697C2.98865 11.5593 3.03851 11.3701 3.20469 11.3228L39.7993 2.00444C39.9655 1.97291 40.115 2.11481 40.0652 2.25671Z" fill="#00B37E"/>
<path opacity="0.5" d="M23.3297 30.858L20.8037 39.8452C20.7538 40.0029 20.5544 40.0502 20.4381 39.9398L0.0634003 20.6251C-0.0529313 20.5147 -0.00307518 20.3255 0.163113 20.2782L9.63583 17.8658L23.3297 30.858Z" fill="#00B37E"/>
<path d="M28.2484 13.4511L23.3292 30.858L9.63533 17.8659L27.9825 13.1988C28.1487 13.1515 28.2982 13.2934 28.2484 13.4511Z" fill="#00B37E"/>
<path d="M63.7364 26.6266C67.4426 26.6266 69.7329 24.4446 70.6074 20.0804C71.3487 16.3659 69.8662 14.5086 66.16 14.5086H62.4746L60.051 26.6266H63.7364ZM56.1657 29.5L59.7386 11.6352H66.7346C72.6479 11.6352 75.0424 14.4503 73.918 20.0804C72.6604 26.3601 69.075 29.5 63.1617 29.5H56.1657ZM90.1087 11.6352L89.5341 14.5086H84.412L81.4137 29.5H78.1031L81.1014 14.5086H75.9793L76.554 11.6352H90.1087ZM94.044 29.5L97.6169 11.6352H101.052L104.401 25.19L113.046 11.6352H116.356L112.783 29.5H109.722L112.209 17.0571L104.875 29.5H102.052L99.5908 17.0571L97.1047 29.5H94.044ZM120.229 22.8913C119.679 25.6314 120.425 27.0014 122.465 27.0014C124.506 27.0014 125.801 25.6314 126.35 22.8913C126.883 20.2178 126.13 18.8811 124.089 18.8811C122.049 18.8811 120.762 20.2178 120.229 22.8913ZM116.906 22.9413C117.797 18.4855 120.366 16.2576 124.614 16.2576C128.861 16.2576 130.54 18.4855 129.649 22.9413C128.757 27.3887 126.188 29.6124 121.94 29.6124C117.71 29.6124 116.031 27.3887 116.906 22.9413ZM130.835 29.5L133.459 16.3825H136.395L135.882 20.805C137.507 17.8567 139.539 16.3825 141.979 16.3825C144.503 16.3825 145.481 17.8025 144.915 20.6426L143.141 29.5H139.83L141.604 20.6051C141.812 19.5724 141.321 19.056 140.13 19.056C138.556 19.056 136.982 20.4427 135.408 23.2161L134.146 29.5H130.835ZM154.372 16.3825C158.103 16.3825 159.706 17.6901 159.182 20.3053C158.657 22.9204 156.633 24.228 153.11 24.228H149.824C149.475 25.9937 150.449 26.8765 152.748 26.8765C154.488 26.8765 156.129 26.3351 157.67 25.2524L157.145 27.8759C155.771 28.9586 154.047 29.5 151.973 29.5C147.634 29.5 145.91 27.2638 146.801 22.7913C147.659 18.5188 150.183 16.3825 154.372 16.3825ZM150.312 21.8044H153.622C154.997 21.8044 155.779 21.3339 155.971 20.3927C156.154 19.4516 155.446 18.981 153.847 18.981C152.015 18.981 150.836 19.9222 150.312 21.8044ZM169.676 25.0775C168.052 28.0258 166.019 29.5 163.579 29.5C161.056 29.5 160.077 28.08 160.643 25.2399L162.417 16.3825H165.728L163.954 25.2774C163.746 26.3102 164.237 26.8265 165.428 26.8265C167.002 26.8265 168.576 25.4398 170.15 22.6664L171.412 16.3825H174.723L172.099 29.5C171.466 32.6649 168.805 34.2473 164.116 34.2473C162.501 34.2473 161.11 34.0391 159.944 33.6226L160.468 30.9991C161.659 31.4156 163.059 31.6238 164.666 31.6238C167.131 31.6238 168.505 30.9159 168.789 29.5L169.676 25.0775Z" fill="#E1E1E6"/>
</svg> -->
<svg width="164" height="42" viewBox="0 0 164 42" fill="none" xmlns="http://www.w3.org/2000/svg">
<path opacity="0.5" d="M40.0652 2.25671L30.2601 36.9917C30.2102 37.1494 30.0108 37.1967 29.8945 37.0863L23.3301 30.8583L28.2492 13.4514C28.2991 13.2937 28.1495 13.1518 27.9833 13.1991L9.63617 17.8662L3.10498 11.6697C2.98865 11.5593 3.03851 11.3701 3.20469 11.3228L39.7993 2.00444C39.9655 1.97291 40.115 2.11481 40.0652 2.25671Z" fill="#00B37E"/>
<path opacity="0.5" d="M23.3297 30.858L20.8037 39.8452C20.7538 40.0029 20.5544 40.0502 20.4381 39.9398L0.0634003 20.6251C-0.0529313 20.5147 -0.00307518 20.3255 0.163113 20.2782L9.63583 17.8658L23.3297 30.858Z" fill="#00B37E"/>
<path d="M28.2484 13.4511L23.3292 30.858L9.63533 17.8659L27.9825 13.1988C28.1487 13.1515 28.2982 13.2934 28.2484 13.4511Z" fill="#00B37E"/>
<path d="M71.4194 11.6352L70.8448 14.5086H65.7227L62.7244 29.5H59.4138L62.4121 14.5086H57.29L57.8647 11.6352H71.4194ZM73.031 26.4393L72.4189 29.5H69.1083L69.7204 26.4393H73.031ZM81.1763 29.5L84.7493 11.6352H88.1848L91.5329 25.19L100.178 11.6352H103.489L99.9156 29.5H96.8549L99.3409 17.0571L92.0076 29.5H89.1843L86.7232 17.0571L84.2371 29.5H81.1763ZM107.361 22.8913C106.812 25.6314 107.557 27.0014 109.598 27.0014C111.638 27.0014 112.933 25.6314 113.483 22.8913C114.016 20.2178 113.262 18.8811 111.222 18.8811C109.181 18.8811 107.894 20.2178 107.361 22.8913ZM104.038 22.9413C104.929 18.4855 107.499 16.2576 111.746 16.2576C115.994 16.2576 117.672 18.4855 116.781 22.9413C115.89 27.3887 113.32 29.6124 109.073 29.6124C104.842 29.6124 103.164 27.3887 104.038 22.9413ZM117.968 29.5L120.591 16.3825H123.527L123.015 20.805C124.639 17.8567 126.671 16.3825 129.111 16.3825C131.635 16.3825 132.614 17.8025 132.047 20.6426L130.273 29.5H126.963L128.737 20.6051C128.945 19.5724 128.453 19.056 127.262 19.056C125.688 19.056 124.114 20.4427 122.54 23.2161L121.278 29.5H117.968ZM141.504 16.3825C145.235 16.3825 146.839 17.6901 146.314 20.3053C145.789 22.9204 143.765 24.228 140.242 24.228H136.957C136.607 25.9937 137.581 26.8765 139.88 26.8765C141.621 26.8765 143.262 26.3351 144.802 25.2524L144.278 27.8759C142.903 28.9586 141.179 29.5 139.106 29.5C134.766 29.5 133.042 27.2638 133.934 22.7913C134.791 18.5188 137.315 16.3825 141.504 16.3825ZM137.444 21.8044H140.755C142.129 21.8044 142.912 21.3339 143.103 20.3927C143.287 19.4516 142.579 18.981 140.98 18.981C139.147 18.981 137.969 19.9222 137.444 21.8044ZM156.808 25.0775C155.184 28.0258 153.152 29.5 150.711 29.5C148.188 29.5 147.209 28.08 147.776 25.2399L149.55 16.3825H152.86L151.086 25.2774C150.878 26.3102 151.369 26.8265 152.56 26.8265C154.135 26.8265 155.709 25.4398 157.283 22.6664L158.544 16.3825H161.855L159.232 29.5C158.599 32.6649 155.938 34.2473 151.249 34.2473C149.633 34.2473 148.242 34.0391 147.076 33.6226L147.601 30.9991C148.792 31.4156 150.191 31.6238 151.798 31.6238C154.264 31.6238 155.638 30.9159 155.921 29.5L156.808 25.0775Z" fill="#E1E1E6"/>
</svg>
